<svg xmlns="http://www.w3.org/2000/svg" width="512" height="512" viewBox="0 0 256 256"><defs><filter id="drop" x="-20%" y="-20%" width="140%" height="140%"><feDropShadow dx="0" dy="7" stdDeviation="0" flood-color="#1d1030" flood-opacity="0.45"/></filter><linearGradient id="shade" x1="0" y1="0" x2="0" y2="1"><stop offset="0.5" stop-color="#000" stop-opacity="0"/><stop offset="1" stop-color="#000" stop-opacity="0.18"/></linearGradient><linearGradient id="g0" x1="0" y1="0" x2="0" y2="1"><stop offset="0" stop-color="#ffe590"/><stop offset="0.5" stop-color="#ffd23f"/><stop offset="1" stop-color="#b8972d"/></linearGradient><linearGradient id="g1" x1="0" y1="0" x2="0" y2="1"><stop offset="0" stop-color="#ff9f8e"/><stop offset="0.5" stop-color="#ff5a3c"/><stop offset="1" stop-color="#b8412b"/></linearGradient><linearGradient id="g2" x1="0" y1="0" x2="0" y2="1"><stop offset="0" stop-color="#ffffff"/><stop offset="0.5" stop-color="#ffffff"/><stop offset="1" stop-color="#b8b8b8"/></linearGradient><linearGradient id="g3" x1="0" y1="0" x2="0" y2="1"><stop offset="0" stop-color="#978da6"/><stop offset="0.5" stop-color="#4b3b66"/><stop offset="1" stop-color="#362a49"/></linearGradient></defs><g filter="url(#drop)"><polygon points="166.7,21.5 179.0,65.8 223.5,54.3 204.5,96.2 246.0,116.0 204.5,135.8 223.5,177.7 179.0,166.2 166.7,210.5 139.9,173.1 102.0,199.1 105.6,153.3 59.8,148.8 92.0,116.0 59.8,83.2 105.6,78.7 102.0,32.9 139.9,58.9" fill="url(#g0)" stroke="#1d1030" stroke-width="14" stroke-linejoin="round" stroke-linecap="round" paint-order="stroke"/><g transform="rotate(-24 120 150)"><path d="M58 70 L120 70 L128 116 L190 130 Q220 138 218 170 L218 180 L50 180 Z" fill="url(#g1)" stroke="#1d1030" stroke-width="14" stroke-linejoin="round" stroke-linecap="round" paint-order="stroke"/><path d="M58 70 L120 70 L128 116 L190 130 Q220 138 218 170 L218 180 L50 180 Z" fill="url(#shade)"/><rect x="42" y="170" width="184" height="28" rx="12" fill="url(#g2)" stroke="#1d1030" stroke-width="12" stroke-linejoin="round" stroke-linecap="round" paint-order="stroke"/><rect x="42" y="170" width="184" height="28" rx="12" fill="url(#shade)"/><rect x="70" y="196" width="18" height="16" rx="5" fill="url(#g3)" stroke="#1d1030" stroke-width="7" stroke-linejoin="round" stroke-linecap="round" paint-order="stroke"/><rect x="110" y="196" width="18" height="16" rx="5" fill="url(#g3)" stroke="#1d1030" stroke-width="7" stroke-linejoin="round" stroke-linecap="round" paint-order="stroke"/><rect x="150" y="196" width="18" height="16" rx="5" fill="url(#g3)" stroke="#1d1030" stroke-width="7" stroke-linejoin="round" stroke-linecap="round" paint-order="stroke"/><rect x="190" y="196" width="18" height="16" rx="5" fill="url(#g3)" stroke="#1d1030" stroke-width="7" stroke-linejoin="round" stroke-linecap="round" paint-order="stroke"/><rect x="68" y="80" width="42" height="12" rx="6" fill="#ffffff" opacity="0.6"/></g><path d="M222 30 Q224.16 39.84 234 42 Q224.16 44.16 222 54 Q219.84 44.16 210 42 Q219.84 39.84 222 30 Z" fill="#ffffff" opacity="0.95"/></g></svg>