<svg xmlns="http://www.w3.org/2000/svg" width="512" height="512" viewBox="0 0 256 256"><defs><filter id="drop" x="-20%" y="-20%" width="140%" height="140%"><feDropShadow dx="0" dy="7" stdDeviation="0" flood-color="#1d1030" flood-opacity="0.45"/></filter><linearGradient id="shade" x1="0" y1="0" x2="0" y2="1"><stop offset="0.5" stop-color="#000" stop-opacity="0"/><stop offset="1" stop-color="#000" stop-opacity="0.18"/></linearGradient><linearGradient id="g0" x1="0" y1="0" x2="0" y2="1"><stop offset="0" stop-color="#ff98aa"/><stop offset="0.5" stop-color="#ff4d6d"/><stop offset="1" stop-color="#b8374e"/></linearGradient><linearGradient id="g1" x1="0" y1="0" x2="0" y2="1"><stop offset="0" stop-color="#978da6"/><stop offset="0.5" stop-color="#4b3b66"/><stop offset="1" stop-color="#362a49"/></linearGradient><linearGradient id="g2" x1="0" y1="0" x2="0" y2="1"><stop offset="0" stop-color="#ffe389"/><stop offset="0.5" stop-color="#ffcf33"/><stop offset="1" stop-color="#b89525"/></linearGradient><linearGradient id="g3" x1="0" y1="0" x2="0" y2="1"><stop offset="0" stop-color="#ffc77b"/><stop offset="0.5" stop-color="#ff9f1c"/><stop offset="1" stop-color="#b87214"/></linearGradient></defs><g filter="url(#drop)"><path d="M26 56 L58 56 L88 176" fill="none" stroke="#1d1030" stroke-width="22" stroke-linecap="round" stroke-linejoin="round"/><path d="M26 56 L58 56 L88 176" fill="none" stroke="#c9d3e6" stroke-width="9" stroke-linecap="round" stroke-linejoin="round"/><path d="M60 82 L226 82 L204 172 L86 172 Z" fill="url(#g0)" stroke="#1d1030" stroke-width="14" stroke-linejoin="round" stroke-linecap="round" paint-order="stroke"/><path d="M60 82 L226 82 L204 172 L86 172 Z" fill="url(#shade)"/><path d="M84 112 L214 112 M92 142 L208 142" stroke="#ffffff" stroke-opacity="0.35" stroke-width="8" stroke-linecap="round"/><rect x="74" y="90" width="132" height="12" rx="6" fill="#ffffff" opacity="0.55"/><circle cx="104" cy="204" r="19" fill="url(#g1)" stroke="#1d1030" stroke-width="14" stroke-linejoin="round" stroke-linecap="round" paint-order="stroke"/><circle cx="104" cy="204" r="19" fill="url(#shade)"/><circle cx="184" cy="204" r="19" fill="url(#g1)" stroke="#1d1030" stroke-width="14" stroke-linejoin="round" stroke-linecap="round" paint-order="stroke"/><circle cx="184" cy="204" r="19" fill="url(#shade)"/><circle cx="98" cy="198" r="5" fill="#ffffff" opacity="0.8"/><circle cx="178" cy="198" r="5" fill="#ffffff" opacity="0.8"/><circle cx="204" cy="64" r="30" fill="url(#g2)" stroke="#1d1030" stroke-width="14" stroke-linejoin="round" stroke-linecap="round" paint-order="stroke"/><circle cx="204" cy="64" r="30" fill="url(#shade)"/><polygon points="204.0,47.0 208.7,58.5 221.1,59.4 211.6,67.5 214.6,79.6 204.0,73.0 193.4,79.6 196.4,67.5 186.9,59.4 199.3,58.5" fill="url(#g3)" stroke="#1d1030" stroke-width="6" stroke-linejoin="round" stroke-linecap="round" paint-order="stroke"/><path d="M56 100 Q58.16 109.84 68 112 Q58.16 114.16 56 124 Q53.84 114.16 44 112 Q53.84 109.84 56 100 Z" fill="#ffffff" opacity="0.95"/></g></svg>