<svg xmlns="http://www.w3.org/2000/svg" width="512" height="512" viewBox="0 0 256 256"><defs><filter id="drop" x="-20%" y="-20%" width="140%" height="140%"><feDropShadow dx="0" dy="7" stdDeviation="0" flood-color="#1d1030" flood-opacity="0.45"/></filter><linearGradient id="shade" x1="0" y1="0" x2="0" y2="1"><stop offset="0.5" stop-color="#000" stop-opacity="0"/><stop offset="1" stop-color="#000" stop-opacity="0.18"/></linearGradient><linearGradient id="g0" x1="0" y1="0" x2="0" y2="1"><stop offset="0" stop-color="#daf0ff"/><stop offset="0.5" stop-color="#bfe6ff"/><stop offset="1" stop-color="#8aa6b8"/></linearGradient><linearGradient id="g1" x1="0" y1="0" x2="0" y2="1"><stop offset="0" stop-color="#90c8ff"/><stop offset="0.5" stop-color="#3fa0ff"/><stop offset="1" stop-color="#2d73b8"/></linearGradient><linearGradient id="g2" x1="0" y1="0" x2="0" y2="1"><stop offset="0" stop-color="#ffffff"/><stop offset="0.5" stop-color="#ffffff"/><stop offset="1" stop-color="#b8b8b8"/></linearGradient><linearGradient id="g3" x1="0" y1="0" x2="0" y2="1"><stop offset="0" stop-color="#ffe590"/><stop offset="0.5" stop-color="#ffd23f"/><stop offset="1" stop-color="#b8972d"/></linearGradient></defs><g filter="url(#drop)"><rect x="14" y="96" width="46" height="14" rx="7" fill="url(#g0)" stroke="#1d1030" stroke-width="8" stroke-linejoin="round" stroke-linecap="round" paint-order="stroke"/><rect x="20" y="128" width="38" height="14" rx="7" fill="url(#g0)" stroke="#1d1030" stroke-width="8" stroke-linejoin="round" stroke-linecap="round" paint-order="stroke"/><rect x="26" y="160" width="30" height="14" rx="7" fill="url(#g0)" stroke="#1d1030" stroke-width="8" stroke-linejoin="round" stroke-linecap="round" paint-order="stroke"/><path d="M72 66 L138 66 L148 116 L208 132 Q240 140 238 176 L238 186 L64 186 Z" fill="url(#g1)" stroke="#1d1030" stroke-width="14" stroke-linejoin="round" stroke-linecap="round" paint-order="stroke"/><path d="M72 66 L138 66 L148 116 L208 132 Q240 140 238 176 L238 186 L64 186 Z" fill="url(#shade)"/><rect x="56" y="176" width="190" height="30" rx="13" fill="url(#g2)" stroke="#1d1030" stroke-width="12" stroke-linejoin="round" stroke-linecap="round" paint-order="stroke"/><rect x="56" y="176" width="190" height="30" rx="13" fill="url(#shade)"/><rect x="74" y="104" width="76" height="22" rx="8" fill="url(#g3)" stroke="#1d1030" stroke-width="8" stroke-linejoin="round" stroke-linecap="round" paint-order="stroke"/><rect x="74" y="104" width="76" height="22" rx="8" fill="url(#shade)"/><path d="M160 136 L176 120 M178 142 L194 126" stroke="#ffffff" stroke-width="7" stroke-linecap="round"/><rect x="84" y="76" width="44" height="12" rx="6" fill="#ffffff" opacity="0.6"/><path d="M220 89 Q221.98 98.02 231 100 Q221.98 101.98 220 111 Q218.02 101.98 209 100 Q218.02 98.02 220 89 Z" fill="#ffffff" opacity="0.95"/></g></svg>